<svg width="22" height="23" viewBox="0 0 22 23" fill="none" xmlns="http://www.w3.org/2000/svg">
<path d="M20.44 11.05L11.25 20.24C10.1241 21.3659 8.59717 21.9984 7.00498 21.9984C5.4128 21.9984 3.88583 21.3659 2.75998 20.24C1.63414 19.1142 1.00165 17.5872 1.00165 15.995C1.00165 14.4029 1.63414 12.8759 2.75998 11.75L11.95 2.56004C12.7005 1.80948 13.7185 1.38782 14.78 1.38782C15.8414 1.38782 16.8594 1.80948 17.61 2.56004C18.3605 3.3106 18.7822 4.32859 18.7822 5.39004C18.7822 6.4515 18.3605 7.46948 17.61 8.22004L8.40998 17.41C8.0347 17.7853 7.52571 17.9962 6.99498 17.9962C6.46426 17.9962 5.95527 17.7853 5.57998 17.41C5.2047 17.0348 4.99387 16.5258 4.99387 15.995C4.99387 15.4643 5.2047 14.9553 5.57998 14.58L14.07 6.10004" stroke="#FF914C" stroke-width="2" stroke-linecap="round" stroke-linejoin="round"/>
</svg>
