<svg width="27" height="27" viewBox="0 0 27 27" fill="none" xmlns="http://www.w3.org/2000/svg">
<path d="M1.40625 14.4C1.40625 14.866 1.78401 15.2438 2.25 15.2438C2.71599 15.2438 3.09375 14.866 3.09375 14.4H1.40625ZM3.37206 18.9493C3.19374 18.5187 2.70017 18.3143 2.26965 18.4926C1.83914 18.671 1.63469 19.1645 1.81302 19.595L3.37206 18.9493ZM16.7045 7.77818C17.1609 7.87236 17.6071 7.57874 17.7013 7.12237C17.7955 6.66599 17.5019 6.21968 17.0455 6.12551L16.7045 7.77818ZM20.8745 9.95448C20.7803 9.4981 20.334 9.20449 19.8776 9.29867C19.4212 9.39284 19.1277 9.83915 19.2219 10.2955L20.8745 9.95448ZM12.954 24.6287L13.246 24.1356L11.7937 23.2761L11.5019 23.7692L12.954 24.6287ZM9.25401 24.1356L9.54589 24.6287L10.9981 23.7692L10.7062 23.2761L9.25401 24.1356ZM11.5019 23.7692C11.4508 23.8555 11.3616 23.9063 11.25 23.9063C11.1383 23.9063 11.0492 23.8555 10.9981 23.7692L9.54589 24.6287C10.3074 25.9154 12.1925 25.9154 12.954 24.6287L11.5019 23.7692ZM9.9 7.59376H12.6V5.90626H9.9V7.59376ZM19.4062 14.4V15.3H21.0938V14.4H19.4062ZM7.10244 21.1898C6.21115 21.1613 5.72677 21.0837 5.35082 20.928L4.70503 22.4871C5.37651 22.7652 6.11712 22.8466 7.0485 22.8764L7.10244 21.1898ZM1.81302 19.595C2.35538 20.9044 3.39567 21.9447 4.70503 22.4871L5.35082 20.928C4.45493 20.5569 3.74316 19.8451 3.37206 18.9493L1.81302 19.595ZM19.4062 15.3C19.4062 16.36 19.4058 17.1126 19.3654 17.7048C19.3255 18.2895 19.2495 18.6557 19.1279 18.9493L20.6869 19.595C20.9079 19.0616 21.0032 18.4902 21.049 17.8197C21.0942 17.1567 21.0938 16.3369 21.0938 15.3H19.4062ZM15.4514 22.8764C16.3828 22.8466 17.1235 22.7652 17.7949 22.4871L17.1492 20.928C16.7732 21.0837 16.2889 21.1613 15.3975 21.1898L15.4514 22.8764ZM19.1279 18.9493C18.7569 19.8451 18.0451 20.5569 17.1492 20.928L17.7949 22.4871C19.1043 21.9447 20.1446 20.9044 20.6869 19.595L19.1279 18.9493ZM9.9 5.90626C8.44329 5.90626 7.29152 5.90537 6.37053 5.99294C5.43698 6.0817 4.65381 6.26726 3.9579 6.69371L4.83962 8.13254C5.22582 7.89587 5.72023 7.74987 6.53025 7.67285C7.35283 7.59464 8.41062 7.59376 9.9 7.59376V5.90626ZM3.09375 14.4C3.09375 12.9106 3.09464 11.8529 3.17285 11.0303C3.24987 10.2202 3.39587 9.72583 3.63254 9.33963L2.19371 8.45791C1.76725 9.15383 1.58169 9.937 1.49293 10.8705C1.40536 11.7916 1.40625 12.9434 1.40625 14.4H3.09375ZM3.9579 6.69371C3.23886 7.13434 2.63432 7.73888 2.19371 8.45791L3.63254 9.33963C3.93401 8.84766 4.34765 8.43402 4.83962 8.13254L3.9579 6.69371ZM10.7062 23.2761C10.4803 22.8944 10.2822 22.5581 10.09 22.2935C9.88782 22.0151 9.65618 21.7636 9.3355 21.5739L8.47635 23.0264C8.52822 23.057 8.5998 23.1132 8.72465 23.2851C8.8595 23.4709 9.01216 23.727 9.25401 24.1356L10.7062 23.2761ZM7.0485 22.8764C7.54963 22.8925 7.86996 22.9035 8.1133 22.9332C8.34335 22.9613 8.42968 22.9987 8.47635 23.0264L9.3355 21.5739C9.0096 21.3812 8.66667 21.3006 8.31762 21.2581C7.98185 21.2172 7.57324 21.2049 7.10244 21.1898L7.0485 22.8764ZM13.246 24.1356C13.4877 23.727 13.6405 23.4709 13.7753 23.2851C13.9002 23.1132 13.9717 23.057 14.0236 23.0264L13.1645 21.5739C12.8438 21.7636 12.6122 22.0151 12.41 22.2935C12.2178 22.5581 12.0196 22.8944 11.7937 23.2761L13.246 24.1356ZM15.3975 21.1898C14.9267 21.2049 14.5181 21.2172 14.1823 21.2581C13.8333 21.3006 13.4903 21.3812 13.1645 21.5739L14.0236 23.0264C14.0703 22.9987 14.1567 22.9613 14.3866 22.9332C14.63 22.9035 14.9503 22.8925 15.4514 22.8764L15.3975 21.1898ZM12.6 7.59376C14.6225 7.59376 15.8318 7.5981 16.7045 7.77818L17.0455 6.12551C15.9621 5.90191 14.541 5.90626 12.6 5.90626V7.59376ZM21.0938 14.4C21.0938 12.459 21.0981 11.0379 20.8745 9.95448L19.2219 10.2955C19.4019 11.1682 19.4062 12.3775 19.4062 14.4H21.0938Z" fill="white"/>
<path d="M7.91235 6.75C7.97041 5.63385 8.11857 4.8814 8.49662 4.26447C8.84448 3.69681 9.32174 3.21954 9.88941 2.87167C10.9039 2.25 12.2849 2.25 15.0468 2.25H17.578C19.2971 2.25 20.4813 2.25 21.375 2.39991M20.25 16.5771C21.0912 16.5492 21.6593 16.4742 22.1456 16.2727C23.1794 15.8445 24.0006 15.0232 24.4288 13.9895C24.7499 13.2142 24.7499 12.2313 24.7499 10.2657V9.42191C24.7499 7.70282 24.7499 6.51872 24.6 5.625" stroke="white" stroke-width="1.5" stroke-linecap="round"/>
<path d="M7.32294 14.625H7.33306M11.25 14.625H11.2601M15.1774 14.625H15.1875" stroke="white" stroke-width="2" stroke-linecap="round" stroke-linejoin="round"/>
</svg>
