<svg width="30" height="30" viewBox="0 0 30 30" fill="none" xmlns="http://www.w3.org/2000/svg">
<path d="M2.44876 14.9422C2.44876 12.1403 2.44876 10.7393 3.08446 9.57796C3.72015 8.4166 4.88154 7.69581 7.20428 6.25425L9.65303 4.73448C12.1083 3.21065 13.336 2.44873 14.6925 2.44873C16.049 2.44873 17.2767 3.21065 19.7321 4.73448L22.1808 6.25424C24.5036 7.69581 25.6649 8.4166 26.3006 9.57796C26.9363 10.7393 26.9363 12.1403 26.9363 14.9422V16.8046C26.9363 21.5806 26.9363 23.9687 25.5018 25.4524C24.0675 26.9363 21.7587 26.9363 17.1413 26.9363H12.2438C7.62636 26.9363 5.31766 26.9363 3.8832 25.4524C2.44876 23.9687 2.44876 21.5806 2.44876 16.8046V14.9422Z" stroke="white" stroke-width="1.5"/>
<path d="M18.3656 22.0388H11.0194" stroke="white" stroke-width="1.5" stroke-linecap="round"/>
</svg>
