<svg width="30" height="30" viewBox="0 0 30 30" fill="none" xmlns="http://www.w3.org/2000/svg">
<path d="M15.3074 27.5512C22.0695 27.5512 27.5512 22.0695 27.5512 15.3074C27.5512 8.54538 22.0695 3.06366 15.3074 3.06366C8.54538 3.06366 3.06366 8.54538 3.06366 15.3074C3.06366 22.0695 8.54538 27.5512 15.3074 27.5512Z" stroke="white" stroke-width="1.5"/>
<path d="M17.7562 9.18557C17.7562 10.538 16.6599 11.6343 15.3075 11.6343C13.955 11.6343 12.8587 10.538 12.8587 9.18557C12.8587 7.83316 13.955 6.73682 15.3075 6.73682C16.6599 6.73682 17.7562 7.83316 17.7562 9.18557Z" stroke="white" stroke-width="1.5"/>
<path d="M22.6537 12.8587C22.6537 12.8587 18.3227 14.6953 15.3074 14.6953C12.2921 14.6953 7.96118 12.8587 7.96118 12.8587" stroke="white" stroke-width="1.5" stroke-linecap="round"/>
<path d="M15.3075 15.3074V17.0855M15.3075 17.0855C15.3075 17.7899 15.51 18.4793 15.8909 19.0718L18.9806 23.8781M15.3075 17.0855C15.3075 17.7899 15.105 18.4793 14.7241 19.0718L11.6343 23.8781" stroke="white" stroke-width="1.5" stroke-linecap="round"/>
</svg>
