<svg width="31" height="31" viewBox="0 0 31 31" fill="none" xmlns="http://www.w3.org/2000/svg">
<path d="M10.2617 5.32267C12.7456 3.85169 13.9877 3.11621 15.3514 3.11621C16.7151 3.11621 17.9571 3.85169 20.441 5.32267L21.2811 5.8202C23.765 7.29118 25.007 8.02666 25.6889 9.2381C26.3708 10.4495 26.3708 11.9205 26.3708 14.8625V15.8574C26.3708 18.7995 26.3708 20.2705 25.6889 21.4819C25.007 22.6933 23.765 23.4287 21.2811 24.8997L20.441 25.3973C17.9571 26.8683 16.7151 27.6037 15.3514 27.6037C13.9877 27.6037 12.7456 26.8683 10.2617 25.3973L9.42161 24.8997C6.93769 23.4287 5.69573 22.6933 5.01385 21.4819C4.33197 20.2705 4.33197 18.7995 4.33197 15.8574V14.8625C4.33197 11.9205 4.33197 10.4495 5.01385 9.2381C5.69573 8.02666 6.93769 7.29118 9.42161 5.8202L10.2617 5.32267Z" stroke="white" stroke-width="1.5"/>
<path d="M15.3514 19.0332C17.38 19.0332 19.0245 17.3886 19.0245 15.36C19.0245 13.3314 17.38 11.6869 15.3514 11.6869C13.3227 11.6869 11.6782 13.3314 11.6782 15.36C11.6782 17.3886 13.3227 19.0332 15.3514 19.0332Z" stroke="white" stroke-width="1.5"/>
</svg>
